<svg width="272" height="90" viewBox="0 0 272 90" fill="none" xmlns="http://www.w3.org/2000/svg">
<path d="M16.3968 46.5V20.196L15.3888 15.396L16.3968 12.516H25.0368V20.196L24.5088 32.628H26.4288L30.1248 23.844H39.9167V26.724L34.5888 34.5L38.1407 38.82L42.6528 43.668V46.5H33.3408L27.9168 38.58L25.0368 39.06V46.5H16.3968ZM50.6286 46.5L44.5806 30.084L43.6206 23.844H52.7406L55.3806 38.82H56.3406L59.0286 23.844H68.1006L67.1406 30.084L60.7086 46.5H50.6286ZM70.9938 37.86V32.1H86.3538V37.86H70.9938ZM99.934 46.98C97.758 46.98 96.014 46.34 94.702 45.06C93.39 43.78 92.734 42.164 92.734 40.212V29.748H89.23V25.188L92.254 22.836L95.662 16.884H101.326V23.844H108.046V30.084H101.326V40.356L108.046 40.308V45.54C108.046 45.54 107.662 45.668 106.894 45.924C106.158 46.148 105.182 46.372 103.966 46.596C102.75 46.852 101.406 46.98 99.934 46.98ZM118.589 46.98C117.213 46.98 115.933 46.788 114.749 46.404C113.597 45.988 112.669 45.284 111.965 44.292C111.261 43.3 110.909 41.924 110.909 40.164C110.909 38.564 111.309 37.236 112.109 36.18C112.909 35.124 113.997 34.34 115.373 33.828C116.749 33.316 118.301 33.06 120.029 33.06C121.693 33.06 122.941 33.252 123.773 33.636C124.605 33.988 125.325 34.356 125.933 34.74L126.269 34.452C126.269 33.492 126.189 32.692 126.029 32.052C125.869 31.412 125.501 30.932 124.925 30.612C124.349 30.26 123.453 30.084 122.237 30.084C121.053 30.084 119.789 30.196 118.445 30.42C117.133 30.612 115.917 30.868 114.797 31.188C113.709 31.476 112.893 31.764 112.349 32.052V24.852C113.341 24.5 114.749 24.18 116.573 23.892C118.429 23.572 120.701 23.412 123.389 23.412C126.269 23.412 128.541 23.78 130.205 24.516C131.901 25.22 133.117 26.26 133.853 27.636C134.589 28.98 134.957 30.596 134.957 32.484V38.868L135.917 43.716L134.957 46.548H126.749V44.196L126.269 43.956C126.013 44.212 125.565 44.58 124.925 45.06C124.285 45.54 123.437 45.988 122.381 46.404C121.325 46.788 120.061 46.98 118.589 46.98ZM122.669 40.692C123.533 40.692 124.269 40.612 124.877 40.452C125.517 40.292 125.981 40.148 126.269 40.02V39.108C126.269 38.692 125.965 38.292 125.357 37.908C124.781 37.524 123.869 37.332 122.621 37.332C120.893 37.332 120.029 37.94 120.029 39.156C120.029 39.668 120.221 40.052 120.605 40.308C120.989 40.564 121.677 40.692 122.669 40.692ZM140.756 46.5V31.476L139.748 26.676L140.756 23.796H147.284L148.244 24.9C148.244 24.9 148.468 24.772 148.916 24.516C149.364 24.228 149.988 23.956 150.788 23.7C151.62 23.444 152.58 23.316 153.668 23.316C154.308 23.316 154.948 23.364 155.588 23.46C156.228 23.556 156.724 23.684 157.076 23.844L160.196 26.484L157.076 32.628L150.74 29.988L149.3 30.468V46.5H140.756ZM167.388 22.452L161.292 16.308L167.388 10.212L173.484 16.308L167.388 22.452ZM163.068 46.5V30.612L162.06 26.772L163.02 23.844H171.708V46.5H163.068ZM177.707 46.5V30.948L175.163 26.148L177.707 23.844C177.547 23.3 177.419 22.58 177.323 21.684C177.259 20.756 177.227 20.004 177.227 19.428C177.227 17.604 177.643 16.004 178.475 14.628C179.339 13.252 180.523 12.18 182.027 11.412C183.531 10.612 185.227 10.212 187.115 10.212C188.011 10.212 188.955 10.26 189.947 10.356C190.971 10.42 191.851 10.548 192.587 10.74L197.723 13.668L194.027 20.34L188.507 16.98C187.419 16.98 186.619 17.38 186.107 18.18C185.595 18.948 185.339 19.812 185.339 20.772C185.339 21.476 185.451 22.1 185.675 22.644C185.899 23.188 186.123 23.588 186.347 23.844H194.027V29.604H186.347V38.724L186.827 43.572L186.347 46.5H177.707ZM197.733 46.5V39.828C197.733 39.828 198.037 39.636 198.645 39.252C199.253 38.868 200.037 38.34 200.997 37.668C201.957 36.996 202.997 36.244 204.117 35.412C205.237 34.58 206.293 33.716 207.285 32.82C208.725 31.572 209.925 30.468 210.885 29.508C211.845 28.516 212.565 27.54 213.045 26.58C213.525 25.62 213.765 24.516 213.765 23.268C213.765 21.22 212.405 20.196 209.685 20.196C208.341 20.196 206.981 20.372 205.605 20.724C204.261 21.044 203.013 21.428 201.861 21.876C200.741 22.324 199.861 22.708 199.221 23.028V14.868C200.149 14.356 201.637 13.78 203.685 13.14C205.733 12.5 208.229 12.18 211.173 12.18C215.333 12.18 218.373 13.06 220.293 14.82C222.213 16.548 223.173 19.172 223.173 22.692C223.173 24.516 222.837 26.148 222.165 27.588C221.493 29.028 220.629 30.324 219.573 31.476C218.517 32.596 217.381 33.572 216.165 34.404C214.981 35.236 213.845 35.94 212.757 36.516C211.669 37.06 210.773 37.508 210.069 37.86L210.309 38.82L223.173 37.86V46.5H197.733ZM242.965 46.5V41.7H225.589V35.364L239.317 12.516H251.797L252.757 15.444L251.797 20.244V33.924H258.037V41.22L251.797 41.7V46.5H242.965ZM235.861 33.924H242.965V22.02H242.101L235.861 33.924Z" fill="#3C5267"/>
<path d="M24.7923 72V60.2H20.1523V58H32.0323V60.2H27.3923V72H24.7923ZM33.9835 72V58H39.7435C40.9835 58 42.0435 58.2 42.9235 58.6C43.8168 59 44.5035 59.5733 44.9835 60.32C45.4635 61.0667 45.7035 61.9533 45.7035 62.98C45.7035 64.0067 45.4635 64.8933 44.9835 65.64C44.5035 66.3733 43.8168 66.94 42.9235 67.34C42.0435 67.7267 40.9835 67.92 39.7435 67.92H35.4235L36.5835 66.74V72H33.9835ZM43.1435 72L39.6035 66.92H42.3835L45.9435 72H43.1435ZM36.5835 67.02L35.4235 65.78H39.6235C40.7702 65.78 41.6302 65.5333 42.2035 65.04C42.7902 64.5467 43.0835 63.86 43.0835 62.98C43.0835 62.0867 42.7902 61.4 42.2035 60.92C41.6302 60.44 40.7702 60.2 39.6235 60.2H35.4235L36.5835 58.92V67.02ZM46.6324 72L52.9324 58H55.4924L61.8124 72H59.0924L53.6724 59.38H54.7124L49.3124 72H46.6324ZM49.5324 68.76L50.2324 66.72H57.7924L58.4924 68.76H49.5324ZM67.9329 72.2C66.8396 72.2 65.7929 72.0467 64.7929 71.74C63.7929 71.42 62.9996 71.0133 62.4129 70.52L63.3129 68.5C63.8729 68.94 64.5662 69.3067 65.3929 69.6C66.2196 69.8933 67.0662 70.04 67.9329 70.04C68.6662 70.04 69.2596 69.96 69.7129 69.8C70.1662 69.64 70.4996 69.4267 70.7129 69.16C70.9262 68.88 71.0329 68.5667 71.0329 68.22C71.0329 67.7933 70.8796 67.4533 70.5729 67.2C70.2662 66.9333 69.8662 66.7267 69.3729 66.58C68.8929 66.42 68.3529 66.2733 67.7529 66.14C67.1662 66.0067 66.5729 65.8533 65.9729 65.68C65.3862 65.4933 64.8462 65.26 64.3529 64.98C63.8729 64.6867 63.4796 64.3 63.1729 63.82C62.8662 63.34 62.7129 62.7267 62.7129 61.98C62.7129 61.22 62.9129 60.5267 63.3129 59.9C63.7262 59.26 64.3462 58.7533 65.1729 58.38C66.0129 57.9933 67.0729 57.8 68.3529 57.8C69.1929 57.8 70.0262 57.9067 70.8529 58.12C71.6796 58.3333 72.3996 58.64 73.0129 59.04L72.1929 61.06C71.5662 60.6867 70.9196 60.4133 70.2529 60.24C69.5862 60.0533 68.9462 59.96 68.3329 59.96C67.6129 59.96 67.0262 60.0467 66.5729 60.22C66.1329 60.3933 65.8062 60.62 65.5929 60.9C65.3929 61.18 65.2929 61.5 65.2929 61.86C65.2929 62.2867 65.4396 62.6333 65.7329 62.9C66.0396 63.1533 66.4329 63.3533 66.9129 63.5C67.4062 63.6467 67.9529 63.7933 68.5529 63.94C69.1529 64.0733 69.7462 64.2267 70.3329 64.4C70.9329 64.5733 71.4729 64.8 71.9529 65.08C72.4462 65.36 72.8396 65.74 73.1329 66.22C73.4396 66.7 73.5929 67.3067 73.5929 68.04C73.5929 68.7867 73.3862 69.48 72.9729 70.12C72.5729 70.7467 71.9529 71.2533 71.1129 71.64C70.2729 72.0133 69.2129 72.2 67.9329 72.2ZM76.171 72V58H81.931C83.171 58 84.231 58.2 85.111 58.6C86.0043 59 86.691 59.5733 87.171 60.32C87.651 61.0667 87.891 61.9533 87.891 62.98C87.891 64.0067 87.651 64.8933 87.171 65.64C86.691 66.3867 86.0043 66.96 85.111 67.36C84.231 67.76 83.171 67.96 81.931 67.96H77.611L78.771 66.74V72H76.171ZM78.771 67.02L77.611 65.76H81.811C82.9577 65.76 83.8177 65.52 84.391 65.04C84.9777 64.5467 85.271 63.86 85.271 62.98C85.271 62.0867 84.9777 61.4 84.391 60.92C83.8177 60.44 82.9577 60.2 81.811 60.2H77.611L78.771 58.92V67.02ZM87.8043 72L94.1043 58H96.6643L102.984 72H100.264L94.8443 59.38H95.8843L90.4843 72H87.8043ZM90.7043 68.76L91.4043 66.72H98.9643L99.6643 68.76H90.7043ZM104.765 72V58H110.525C111.765 58 112.825 58.2 113.705 58.6C114.598 59 115.285 59.5733 115.765 60.32C116.245 61.0667 116.485 61.9533 116.485 62.98C116.485 64.0067 116.245 64.8933 115.765 65.64C115.285 66.3733 114.598 66.94 113.705 67.34C112.825 67.7267 111.765 67.92 110.525 67.92H106.205L107.365 66.74V72H104.765ZM113.925 72L110.385 66.92H113.165L116.725 72H113.925ZM107.365 67.02L106.205 65.78H110.405C111.551 65.78 112.411 65.5333 112.985 65.04C113.571 64.5467 113.865 63.86 113.865 62.98C113.865 62.0867 113.571 61.4 112.985 60.92C112.411 60.44 111.551 60.2 110.405 60.2H106.205L107.365 58.92V67.02ZM121.794 63.82H128.754V65.96H121.794V63.82ZM121.994 69.82H129.894V72H119.394V58H129.614V60.18H121.994V69.82ZM132.792 72V58H134.932L143.712 68.78H142.652V58H145.232V72H143.092L134.312 61.22H135.372V72H132.792ZM151.824 72V60.2H147.184V58H159.064V60.2H154.424V72H151.824ZM160.93 72.14C160.477 72.14 160.09 71.9867 159.77 71.68C159.45 71.36 159.29 70.96 159.29 70.48C159.29 69.9733 159.45 69.5733 159.77 69.28C160.09 68.9733 160.477 68.82 160.93 68.82C161.384 68.82 161.77 68.9733 162.09 69.28C162.41 69.5733 162.57 69.9733 162.57 70.48C162.57 70.96 162.41 71.36 162.09 71.68C161.77 71.9867 161.384 72.14 160.93 72.14ZM170.78 72V58H176.9C178.42 58 179.754 58.2933 180.9 58.88C182.047 59.4667 182.94 60.28 183.58 61.32C184.22 62.36 184.54 63.5867 184.54 65C184.54 66.4 184.22 67.6267 183.58 68.68C182.94 69.72 182.047 70.5333 180.9 71.12C179.754 71.7067 178.42 72 176.9 72H170.78ZM173.38 69.8H176.78C177.834 69.8 178.74 69.6 179.5 69.2C180.274 68.8 180.867 68.24 181.28 67.52C181.707 66.8 181.92 65.96 181.92 65C181.92 64.0267 181.707 63.1867 181.28 62.48C180.867 61.76 180.274 61.2 179.5 60.8C178.74 60.4 177.834 60.2 176.78 60.2H173.38V69.8ZM187.304 72V58H189.904V72H187.304ZM200.231 72.2C199.137 72.2 198.131 72.0267 197.211 71.68C196.304 71.32 195.511 70.82 194.831 70.18C194.151 69.5267 193.624 68.76 193.251 67.88C192.877 67 192.691 66.04 192.691 65C192.691 63.96 192.877 63 193.251 62.12C193.624 61.24 194.151 60.48 194.831 59.84C195.524 59.1867 196.331 58.6867 197.251 58.34C198.171 57.98 199.177 57.8 200.271 57.8C201.457 57.8 202.524 57.9933 203.471 58.38C204.431 58.7667 205.237 59.3333 205.891 60.08L204.251 61.68C203.704 61.1333 203.111 60.7333 202.471 60.48C201.844 60.2133 201.151 60.08 200.391 60.08C199.657 60.08 198.977 60.2 198.351 60.44C197.724 60.68 197.184 61.02 196.731 61.46C196.277 61.9 195.924 62.42 195.671 63.02C195.431 63.62 195.311 64.28 195.311 65C195.311 65.7067 195.431 66.36 195.671 66.96C195.924 67.56 196.277 68.0867 196.731 68.54C197.184 68.98 197.717 69.32 198.331 69.56C198.944 69.8 199.624 69.92 200.371 69.92C201.064 69.92 201.731 69.8133 202.371 69.6C203.024 69.3733 203.644 69 204.231 68.48L205.711 70.42C204.977 71.0067 204.124 71.4533 203.151 71.76C202.191 72.0533 201.217 72.2 200.231 72.2ZM203.251 70.08V64.84H205.711V70.42L203.251 70.08ZM209.14 72V58H211.74V72H209.14ZM218.366 72V60.2H213.726V58H225.606V60.2H220.966V72H218.366ZM224.875 72L231.175 58H233.735L240.055 72H237.335L231.915 59.38H232.955L227.555 72H224.875ZM227.775 68.76L228.475 66.72H236.035L236.735 68.76H227.775ZM241.835 72V58H244.435V69.8H251.755V72H241.835Z" fill="#1DAE9A"/>
</svg>
