<svg width="272" height="90" viewBox="0 0 272 90" fill="none" xmlns="http://www.w3.org/2000/svg">
<path d="M14.1681 46.5V20.388L13.2081 15.54L14.1681 12.516H22.8081V18.276L22.3281 26.868H25.2081L32.9361 12.516H42.4881V15.396L32.9841 28.884L41.0481 38.868L45.8001 43.62V46.5H35.0001L26.2641 33.78L22.8081 34.26V40.74L23.2881 43.62L22.8081 46.5H14.1681ZM53.7693 46.5L47.7213 30.084L46.7613 23.844H55.8813L58.5213 38.82H59.4813L62.1693 23.844H71.2413L70.2812 30.084L63.8493 46.5H53.7693ZM74.1344 37.86V32.1H89.4944V37.86H74.1344ZM103.075 46.98C100.899 46.98 99.1546 46.34 97.8426 45.06C96.5306 43.78 95.8746 42.164 95.8746 40.212V29.748H92.3706V25.188L95.3946 22.836L98.8026 16.884H104.467V23.844H111.187V30.084H104.467V40.356L111.187 40.308V45.54C111.187 45.54 110.803 45.668 110.035 45.924C109.299 46.148 108.323 46.372 107.107 46.596C105.891 46.852 104.547 46.98 103.075 46.98ZM121.729 46.98C120.353 46.98 119.073 46.788 117.889 46.404C116.737 45.988 115.809 45.284 115.105 44.292C114.401 43.3 114.049 41.924 114.049 40.164C114.049 38.564 114.449 37.236 115.249 36.18C116.049 35.124 117.137 34.34 118.513 33.828C119.889 33.316 121.441 33.06 123.169 33.06C124.833 33.06 126.081 33.252 126.913 33.636C127.745 33.988 128.465 34.356 129.073 34.74L129.409 34.452C129.409 33.492 129.329 32.692 129.169 32.052C129.009 31.412 128.641 30.932 128.065 30.612C127.489 30.26 126.593 30.084 125.377 30.084C124.193 30.084 122.929 30.196 121.585 30.42C120.273 30.612 119.057 30.868 117.937 31.188C116.849 31.476 116.033 31.764 115.489 32.052V24.852C116.481 24.5 117.889 24.18 119.713 23.892C121.569 23.572 123.841 23.412 126.529 23.412C129.409 23.412 131.681 23.78 133.345 24.516C135.041 25.22 136.257 26.26 136.993 27.636C137.729 28.98 138.097 30.596 138.097 32.484V38.868L139.057 43.716L138.097 46.548H129.889V44.196L129.409 43.956C129.153 44.212 128.705 44.58 128.065 45.06C127.425 45.54 126.577 45.988 125.521 46.404C124.465 46.788 123.201 46.98 121.729 46.98ZM125.809 40.692C126.673 40.692 127.409 40.612 128.017 40.452C128.657 40.292 129.121 40.148 129.409 40.02V39.108C129.409 38.692 129.105 38.292 128.497 37.908C127.921 37.524 127.009 37.332 125.761 37.332C124.033 37.332 123.169 37.94 123.169 39.156C123.169 39.668 123.361 40.052 123.745 40.308C124.129 40.564 124.817 40.692 125.809 40.692ZM143.897 46.5V31.476L142.889 26.676L143.897 23.796H150.425L151.385 24.9C151.385 24.9 151.609 24.772 152.057 24.516C152.505 24.228 153.129 23.956 153.929 23.7C154.761 23.444 155.721 23.316 156.809 23.316C157.449 23.316 158.089 23.364 158.729 23.46C159.369 23.556 159.865 23.684 160.217 23.844L163.337 26.484L160.217 32.628L153.881 29.988L152.441 30.468V46.5H143.897ZM170.528 22.452L164.432 16.308L170.528 10.212L176.624 16.308L170.528 22.452ZM166.208 46.5V30.612L165.2 26.772L166.16 23.844H174.848V46.5H166.208ZM180.848 46.5V30.948L178.304 26.148L180.848 23.844C180.688 23.3 180.56 22.58 180.464 21.684C180.4 20.756 180.368 20.004 180.368 19.428C180.368 17.604 180.784 16.004 181.616 14.628C182.48 13.252 183.664 12.18 185.168 11.412C186.672 10.612 188.368 10.212 190.256 10.212C191.152 10.212 192.096 10.26 193.088 10.356C194.112 10.42 194.992 10.548 195.728 10.74L200.864 13.668L197.168 20.34L191.648 16.98C190.56 16.98 189.76 17.38 189.248 18.18C188.736 18.948 188.48 19.812 188.48 20.772C188.48 21.476 188.592 22.1 188.816 22.644C189.04 23.188 189.264 23.588 189.488 23.844H197.168V29.604H189.488V38.724L189.968 43.572L189.488 46.5H180.848ZM200.873 46.5V39.828C200.873 39.828 201.177 39.636 201.785 39.252C202.393 38.868 203.177 38.34 204.137 37.668C205.097 36.996 206.137 36.244 207.257 35.412C208.377 34.58 209.433 33.716 210.425 32.82C211.865 31.572 213.065 30.468 214.025 29.508C214.985 28.516 215.705 27.54 216.185 26.58C216.665 25.62 216.905 24.516 216.905 23.268C216.905 21.22 215.545 20.196 212.825 20.196C211.481 20.196 210.121 20.372 208.745 20.724C207.401 21.044 206.153 21.428 205.001 21.876C203.881 22.324 203.001 22.708 202.361 23.028V14.868C203.289 14.356 204.777 13.78 206.825 13.14C208.873 12.5 211.369 12.18 214.313 12.18C218.473 12.18 221.513 13.06 223.433 14.82C225.353 16.548 226.313 19.172 226.313 22.692C226.313 24.516 225.977 26.148 225.305 27.588C224.633 29.028 223.769 30.324 222.713 31.476C221.657 32.596 220.521 33.572 219.305 34.404C218.121 35.236 216.985 35.94 215.897 36.516C214.809 37.06 213.913 37.508 213.209 37.86L213.449 38.82L226.313 37.86V46.5H200.873ZM246.106 46.5V41.7H228.73V35.364L242.458 12.516H254.938L255.898 15.444L254.938 20.244V33.924H261.178V41.22L254.938 41.7V46.5H246.106ZM239.002 33.924H246.106V22.02H245.242L239.002 33.924Z" fill="#252525"/>
<path d="M24.7923 72V60.2H20.1523V58H32.0323V60.2H27.3923V72H24.7923ZM33.9835 72V58H39.7435C40.9835 58 42.0435 58.2 42.9235 58.6C43.8168 59 44.5035 59.5733 44.9835 60.32C45.4635 61.0667 45.7035 61.9533 45.7035 62.98C45.7035 64.0067 45.4635 64.8933 44.9835 65.64C44.5035 66.3733 43.8168 66.94 42.9235 67.34C42.0435 67.7267 40.9835 67.92 39.7435 67.92H35.4235L36.5835 66.74V72H33.9835ZM43.1435 72L39.6035 66.92H42.3835L45.9435 72H43.1435ZM36.5835 67.02L35.4235 65.78H39.6235C40.7702 65.78 41.6302 65.5333 42.2035 65.04C42.7902 64.5467 43.0835 63.86 43.0835 62.98C43.0835 62.0867 42.7902 61.4 42.2035 60.92C41.6302 60.44 40.7702 60.2 39.6235 60.2H35.4235L36.5835 58.92V67.02ZM46.6324 72L52.9324 58H55.4924L61.8124 72H59.0924L53.6724 59.38H54.7124L49.3124 72H46.6324ZM49.5324 68.76L50.2324 66.72H57.7924L58.4924 68.76H49.5324ZM67.9329 72.2C66.8396 72.2 65.7929 72.0467 64.7929 71.74C63.7929 71.42 62.9996 71.0133 62.4129 70.52L63.3129 68.5C63.8729 68.94 64.5662 69.3067 65.3929 69.6C66.2196 69.8933 67.0662 70.04 67.9329 70.04C68.6662 70.04 69.2596 69.96 69.7129 69.8C70.1662 69.64 70.4996 69.4267 70.7129 69.16C70.9262 68.88 71.0329 68.5667 71.0329 68.22C71.0329 67.7933 70.8796 67.4533 70.5729 67.2C70.2662 66.9333 69.8662 66.7267 69.3729 66.58C68.8929 66.42 68.3529 66.2733 67.7529 66.14C67.1662 66.0067 66.5729 65.8533 65.9729 65.68C65.3862 65.4933 64.8462 65.26 64.3529 64.98C63.8729 64.6867 63.4796 64.3 63.1729 63.82C62.8662 63.34 62.7129 62.7267 62.7129 61.98C62.7129 61.22 62.9129 60.5267 63.3129 59.9C63.7262 59.26 64.3462 58.7533 65.1729 58.38C66.0129 57.9933 67.0729 57.8 68.3529 57.8C69.1929 57.8 70.0262 57.9067 70.8529 58.12C71.6796 58.3333 72.3996 58.64 73.0129 59.04L72.1929 61.06C71.5662 60.6867 70.9196 60.4133 70.2529 60.24C69.5862 60.0533 68.9462 59.96 68.3329 59.96C67.6129 59.96 67.0262 60.0467 66.5729 60.22C66.1329 60.3933 65.8062 60.62 65.5929 60.9C65.3929 61.18 65.2929 61.5 65.2929 61.86C65.2929 62.2867 65.4396 62.6333 65.7329 62.9C66.0396 63.1533 66.4329 63.3533 66.9129 63.5C67.4062 63.6467 67.9529 63.7933 68.5529 63.94C69.1529 64.0733 69.7462 64.2267 70.3329 64.4C70.9329 64.5733 71.4729 64.8 71.9529 65.08C72.4462 65.36 72.8396 65.74 73.1329 66.22C73.4396 66.7 73.5929 67.3067 73.5929 68.04C73.5929 68.7867 73.3862 69.48 72.9729 70.12C72.5729 70.7467 71.9529 71.2533 71.1129 71.64C70.2729 72.0133 69.2129 72.2 67.9329 72.2ZM76.171 72V58H81.931C83.171 58 84.231 58.2 85.111 58.6C86.0043 59 86.691 59.5733 87.171 60.32C87.651 61.0667 87.891 61.9533 87.891 62.98C87.891 64.0067 87.651 64.8933 87.171 65.64C86.691 66.3867 86.0043 66.96 85.111 67.36C84.231 67.76 83.171 67.96 81.931 67.96H77.611L78.771 66.74V72H76.171ZM78.771 67.02L77.611 65.76H81.811C82.9577 65.76 83.8177 65.52 84.391 65.04C84.9777 64.5467 85.271 63.86 85.271 62.98C85.271 62.0867 84.9777 61.4 84.391 60.92C83.8177 60.44 82.9577 60.2 81.811 60.2H77.611L78.771 58.92V67.02ZM87.8043 72L94.1043 58H96.6643L102.984 72H100.264L94.8443 59.38H95.8843L90.4843 72H87.8043ZM90.7043 68.76L91.4043 66.72H98.9643L99.6643 68.76H90.7043ZM104.765 72V58H110.525C111.765 58 112.825 58.2 113.705 58.6C114.598 59 115.285 59.5733 115.765 60.32C116.245 61.0667 116.485 61.9533 116.485 62.98C116.485 64.0067 116.245 64.8933 115.765 65.64C115.285 66.3733 114.598 66.94 113.705 67.34C112.825 67.7267 111.765 67.92 110.525 67.92H106.205L107.365 66.74V72H104.765ZM113.925 72L110.385 66.92H113.165L116.725 72H113.925ZM107.365 67.02L106.205 65.78H110.405C111.551 65.78 112.411 65.5333 112.985 65.04C113.571 64.5467 113.865 63.86 113.865 62.98C113.865 62.0867 113.571 61.4 112.985 60.92C112.411 60.44 111.551 60.2 110.405 60.2H106.205L107.365 58.92V67.02ZM121.794 63.82H128.754V65.96H121.794V63.82ZM121.994 69.82H129.894V72H119.394V58H129.614V60.18H121.994V69.82ZM132.792 72V58H134.932L143.712 68.78H142.652V58H145.232V72H143.092L134.312 61.22H135.372V72H132.792ZM151.824 72V60.2H147.184V58H159.064V60.2H154.424V72H151.824ZM160.93 72.14C160.477 72.14 160.09 71.9867 159.77 71.68C159.45 71.36 159.29 70.96 159.29 70.48C159.29 69.9733 159.45 69.5733 159.77 69.28C160.09 68.9733 160.477 68.82 160.93 68.82C161.384 68.82 161.77 68.9733 162.09 69.28C162.41 69.5733 162.57 69.9733 162.57 70.48C162.57 70.96 162.41 71.36 162.09 71.68C161.77 71.9867 161.384 72.14 160.93 72.14ZM170.78 72V58H176.9C178.42 58 179.754 58.2933 180.9 58.88C182.047 59.4667 182.94 60.28 183.58 61.32C184.22 62.36 184.54 63.5867 184.54 65C184.54 66.4 184.22 67.6267 183.58 68.68C182.94 69.72 182.047 70.5333 180.9 71.12C179.754 71.7067 178.42 72 176.9 72H170.78ZM173.38 69.8H176.78C177.834 69.8 178.74 69.6 179.5 69.2C180.274 68.8 180.867 68.24 181.28 67.52C181.707 66.8 181.92 65.96 181.92 65C181.92 64.0267 181.707 63.1867 181.28 62.48C180.867 61.76 180.274 61.2 179.5 60.8C178.74 60.4 177.834 60.2 176.78 60.2H173.38V69.8ZM187.304 72V58H189.904V72H187.304ZM200.231 72.2C199.137 72.2 198.131 72.0267 197.211 71.68C196.304 71.32 195.511 70.82 194.831 70.18C194.151 69.5267 193.624 68.76 193.251 67.88C192.877 67 192.691 66.04 192.691 65C192.691 63.96 192.877 63 193.251 62.12C193.624 61.24 194.151 60.48 194.831 59.84C195.524 59.1867 196.331 58.6867 197.251 58.34C198.171 57.98 199.177 57.8 200.271 57.8C201.457 57.8 202.524 57.9933 203.471 58.38C204.431 58.7667 205.237 59.3333 205.891 60.08L204.251 61.68C203.704 61.1333 203.111 60.7333 202.471 60.48C201.844 60.2133 201.151 60.08 200.391 60.08C199.657 60.08 198.977 60.2 198.351 60.44C197.724 60.68 197.184 61.02 196.731 61.46C196.277 61.9 195.924 62.42 195.671 63.02C195.431 63.62 195.311 64.28 195.311 65C195.311 65.7067 195.431 66.36 195.671 66.96C195.924 67.56 196.277 68.0867 196.731 68.54C197.184 68.98 197.717 69.32 198.331 69.56C198.944 69.8 199.624 69.92 200.371 69.92C201.064 69.92 201.731 69.8133 202.371 69.6C203.024 69.3733 203.644 69 204.231 68.48L205.711 70.42C204.977 71.0067 204.124 71.4533 203.151 71.76C202.191 72.0533 201.217 72.2 200.231 72.2ZM203.251 70.08V64.84H205.711V70.42L203.251 70.08ZM209.14 72V58H211.74V72H209.14ZM218.366 72V60.2H213.726V58H225.606V60.2H220.966V72H218.366ZM224.875 72L231.175 58H233.735L240.055 72H237.335L231.915 59.38H232.955L227.555 72H224.875ZM227.775 68.76L228.475 66.72H236.035L236.735 68.76H227.775ZM241.835 72V58H244.435V69.8H251.755V72H241.835Z" fill="#78C6C8"/>
</svg>
